%TF.GenerationSoftware,KiCad,Pcbnew,9.0.7*%
%TF.CreationDate,2026-02-24T10:12:52+07:00*%
%TF.ProjectId,Physics_Lab_2,50687973-6963-4735-9f4c-61625f322e6b,rev?*%
%TF.SameCoordinates,Original*%
%TF.FileFunction,Legend,Top*%
%TF.FilePolarity,Positive*%
%FSLAX46Y46*%
G04 Gerber Fmt 4.6, Leading zero omitted, Abs format (unit mm)*
G04 Created by KiCad (PCBNEW 9.0.7) date 2026-02-24 10:12:52*
%MOMM*%
%LPD*%
G01*
G04 APERTURE LIST*
G04 Aperture macros list*
%AMRoundRect*
0 Rectangle with rounded corners*
0 $1 Rounding radius*
0 $2 $3 $4 $5 $6 $7 $8 $9 X,Y pos of 4 corners*
0 Add a 4 corners polygon primitive as box body*
4,1,4,$2,$3,$4,$5,$6,$7,$8,$9,$2,$3,0*
0 Add four circle primitives for the rounded corners*
1,1,$1+$1,$2,$3*
1,1,$1+$1,$4,$5*
1,1,$1+$1,$6,$7*
1,1,$1+$1,$8,$9*
0 Add four rect primitives between the rounded corners*
20,1,$1+$1,$2,$3,$4,$5,0*
20,1,$1+$1,$4,$5,$6,$7,0*
20,1,$1+$1,$6,$7,$8,$9,0*
20,1,$1+$1,$8,$9,$2,$3,0*%
%AMFreePoly0*
4,1,37,0.800000,0.796148,0.878414,0.796148,1.032228,0.765552,1.177117,0.705537,1.307515,0.618408,1.418408,0.507515,1.505537,0.377117,1.565552,0.232228,1.596148,0.078414,1.596148,-0.078414,1.565552,-0.232228,1.505537,-0.377117,1.418408,-0.507515,1.307515,-0.618408,1.177117,-0.705537,1.032228,-0.765552,0.878414,-0.796148,0.800000,-0.796148,0.800000,-0.800000,-1.400000,-0.800000,
-1.403843,-0.796157,-1.439018,-0.796157,-1.511114,-0.766294,-1.566294,-0.711114,-1.596157,-0.639018,-1.596157,-0.603843,-1.600000,-0.600000,-1.600000,0.600000,-1.596157,0.603843,-1.596157,0.639018,-1.566294,0.711114,-1.511114,0.766294,-1.439018,0.796157,-1.403843,0.796157,-1.400000,0.800000,0.800000,0.800000,0.800000,0.796148,0.800000,0.796148,$1*%
%AMFreePoly1*
4,1,37,1.403843,0.796157,1.439018,0.796157,1.511114,0.766294,1.566294,0.711114,1.596157,0.639018,1.596157,0.603843,1.600000,0.600000,1.600000,-0.600000,1.596157,-0.603843,1.596157,-0.639018,1.566294,-0.711114,1.511114,-0.766294,1.439018,-0.796157,1.403843,-0.796157,1.400000,-0.800000,-0.800000,-0.800000,-0.800000,-0.796148,-0.878414,-0.796148,-1.032228,-0.765552,-1.177117,-0.705537,
-1.307515,-0.618408,-1.418408,-0.507515,-1.505537,-0.377117,-1.565552,-0.232228,-1.596148,-0.078414,-1.596148,0.078414,-1.565552,0.232228,-1.505537,0.377117,-1.418408,0.507515,-1.307515,0.618408,-1.177117,0.705537,-1.032228,0.765552,-0.878414,0.796148,-0.800000,0.796148,-0.800000,0.800000,1.400000,0.800000,1.403843,0.796157,1.403843,0.796157,$1*%
G04 Aperture macros list end*
%ADD10C,0.100000*%
%ADD11C,0.150000*%
%ADD12C,0.120000*%
%ADD13C,0.250000*%
%ADD14FreePoly0,0.000000*%
%ADD15RoundRect,0.800000X-0.800000X-0.000010X0.800000X-0.000010X0.800000X0.000010X-0.800000X0.000010X0*%
%ADD16FreePoly1,0.000000*%
%ADD17RoundRect,0.300000X-0.450000X-0.450000X0.450000X-0.450000X0.450000X0.450000X-0.450000X0.450000X0*%
%ADD18C,1.400000*%
%ADD19R,0.600000X1.450000*%
%ADD20R,0.300000X1.450000*%
%ADD21C,0.650000*%
%ADD22C,3.800000*%
%ADD23R,2.500000X2.500000*%
%ADD24RoundRect,0.062500X-0.062500X-0.350000X0.062500X-0.350000X0.062500X0.350000X-0.062500X0.350000X0*%
%ADD25RoundRect,0.062500X-0.350000X-0.062500X0.350000X-0.062500X0.350000X0.062500X-0.350000X0.062500X0*%
%ADD26RoundRect,0.100000X0.100000X-0.130000X0.100000X0.130000X-0.100000X0.130000X-0.100000X-0.130000X0*%
%ADD27RoundRect,0.250000X-0.475000X0.250000X-0.475000X-0.250000X0.475000X-0.250000X0.475000X0.250000X0*%
%ADD28RoundRect,0.135000X-0.185000X0.135000X-0.185000X-0.135000X0.185000X-0.135000X0.185000X0.135000X0*%
G04 APERTURE END LIST*
D10*
X105872419Y-100410401D02*
X106586704Y-100410401D01*
X106586704Y-100410401D02*
X106729561Y-100458020D01*
X106729561Y-100458020D02*
X106824800Y-100553258D01*
X106824800Y-100553258D02*
X106872419Y-100696115D01*
X106872419Y-100696115D02*
X106872419Y-100791353D01*
X106872419Y-99458020D02*
X106872419Y-99934210D01*
X106872419Y-99934210D02*
X105872419Y-99934210D01*
X106777180Y-98553258D02*
X106824800Y-98600877D01*
X106824800Y-98600877D02*
X106872419Y-98743734D01*
X106872419Y-98743734D02*
X106872419Y-98838972D01*
X106872419Y-98838972D02*
X106824800Y-98981829D01*
X106824800Y-98981829D02*
X106729561Y-99077067D01*
X106729561Y-99077067D02*
X106634323Y-99124686D01*
X106634323Y-99124686D02*
X106443847Y-99172305D01*
X106443847Y-99172305D02*
X106300990Y-99172305D01*
X106300990Y-99172305D02*
X106110514Y-99124686D01*
X106110514Y-99124686D02*
X106015276Y-99077067D01*
X106015276Y-99077067D02*
X105920038Y-98981829D01*
X105920038Y-98981829D02*
X105872419Y-98838972D01*
X105872419Y-98838972D02*
X105872419Y-98743734D01*
X105872419Y-98743734D02*
X105920038Y-98600877D01*
X105920038Y-98600877D02*
X105967657Y-98553258D01*
X105872419Y-97838972D02*
X106586704Y-97838972D01*
X106586704Y-97838972D02*
X106729561Y-97886591D01*
X106729561Y-97886591D02*
X106824800Y-97981829D01*
X106824800Y-97981829D02*
X106872419Y-98124686D01*
X106872419Y-98124686D02*
X106872419Y-98219924D01*
X106872419Y-96886591D02*
X106872419Y-97362781D01*
X106872419Y-97362781D02*
X105872419Y-97362781D01*
X106777180Y-95981829D02*
X106824800Y-96029448D01*
X106824800Y-96029448D02*
X106872419Y-96172305D01*
X106872419Y-96172305D02*
X106872419Y-96267543D01*
X106872419Y-96267543D02*
X106824800Y-96410400D01*
X106824800Y-96410400D02*
X106729561Y-96505638D01*
X106729561Y-96505638D02*
X106634323Y-96553257D01*
X106634323Y-96553257D02*
X106443847Y-96600876D01*
X106443847Y-96600876D02*
X106300990Y-96600876D01*
X106300990Y-96600876D02*
X106110514Y-96553257D01*
X106110514Y-96553257D02*
X106015276Y-96505638D01*
X106015276Y-96505638D02*
X105920038Y-96410400D01*
X105920038Y-96410400D02*
X105872419Y-96267543D01*
X105872419Y-96267543D02*
X105872419Y-96172305D01*
X105872419Y-96172305D02*
X105920038Y-96029448D01*
X105920038Y-96029448D02*
X105967657Y-95981829D01*
X105872419Y-95267543D02*
X106586704Y-95267543D01*
X106586704Y-95267543D02*
X106729561Y-95315162D01*
X106729561Y-95315162D02*
X106824800Y-95410400D01*
X106824800Y-95410400D02*
X106872419Y-95553257D01*
X106872419Y-95553257D02*
X106872419Y-95648495D01*
X106872419Y-94315162D02*
X106872419Y-94791352D01*
X106872419Y-94791352D02*
X105872419Y-94791352D01*
X106777180Y-93410400D02*
X106824800Y-93458019D01*
X106824800Y-93458019D02*
X106872419Y-93600876D01*
X106872419Y-93600876D02*
X106872419Y-93696114D01*
X106872419Y-93696114D02*
X106824800Y-93838971D01*
X106824800Y-93838971D02*
X106729561Y-93934209D01*
X106729561Y-93934209D02*
X106634323Y-93981828D01*
X106634323Y-93981828D02*
X106443847Y-94029447D01*
X106443847Y-94029447D02*
X106300990Y-94029447D01*
X106300990Y-94029447D02*
X106110514Y-93981828D01*
X106110514Y-93981828D02*
X106015276Y-93934209D01*
X106015276Y-93934209D02*
X105920038Y-93838971D01*
X105920038Y-93838971D02*
X105872419Y-93696114D01*
X105872419Y-93696114D02*
X105872419Y-93600876D01*
X105872419Y-93600876D02*
X105920038Y-93458019D01*
X105920038Y-93458019D02*
X105967657Y-93410400D01*
X105872419Y-92696114D02*
X106586704Y-92696114D01*
X106586704Y-92696114D02*
X106729561Y-92743733D01*
X106729561Y-92743733D02*
X106824800Y-92838971D01*
X106824800Y-92838971D02*
X106872419Y-92981828D01*
X106872419Y-92981828D02*
X106872419Y-93077066D01*
X106872419Y-91743733D02*
X106872419Y-92219923D01*
X106872419Y-92219923D02*
X105872419Y-92219923D01*
X106777180Y-90838971D02*
X106824800Y-90886590D01*
X106824800Y-90886590D02*
X106872419Y-91029447D01*
X106872419Y-91029447D02*
X106872419Y-91124685D01*
X106872419Y-91124685D02*
X106824800Y-91267542D01*
X106824800Y-91267542D02*
X106729561Y-91362780D01*
X106729561Y-91362780D02*
X106634323Y-91410399D01*
X106634323Y-91410399D02*
X106443847Y-91458018D01*
X106443847Y-91458018D02*
X106300990Y-91458018D01*
X106300990Y-91458018D02*
X106110514Y-91410399D01*
X106110514Y-91410399D02*
X106015276Y-91362780D01*
X106015276Y-91362780D02*
X105920038Y-91267542D01*
X105920038Y-91267542D02*
X105872419Y-91124685D01*
X105872419Y-91124685D02*
X105872419Y-91029447D01*
X105872419Y-91029447D02*
X105920038Y-90886590D01*
X105920038Y-90886590D02*
X105967657Y-90838971D01*
D11*
X113589160Y-64859104D02*
X114065350Y-64859104D01*
X113493922Y-65144819D02*
X113827255Y-64144819D01*
X113827255Y-64144819D02*
X114160588Y-65144819D01*
X115017731Y-65144819D02*
X114446303Y-65144819D01*
X114732017Y-65144819D02*
X114732017Y-64144819D01*
X114732017Y-64144819D02*
X114636779Y-64287676D01*
X114636779Y-64287676D02*
X114541541Y-64382914D01*
X114541541Y-64382914D02*
X114446303Y-64430533D01*
X152238095Y-71954819D02*
X152238095Y-72764342D01*
X152238095Y-72764342D02*
X152285714Y-72859580D01*
X152285714Y-72859580D02*
X152333333Y-72907200D01*
X152333333Y-72907200D02*
X152428571Y-72954819D01*
X152428571Y-72954819D02*
X152619047Y-72954819D01*
X152619047Y-72954819D02*
X152714285Y-72907200D01*
X152714285Y-72907200D02*
X152761904Y-72859580D01*
X152761904Y-72859580D02*
X152809523Y-72764342D01*
X152809523Y-72764342D02*
X152809523Y-71954819D01*
X153238095Y-72050057D02*
X153285714Y-72002438D01*
X153285714Y-72002438D02*
X153380952Y-71954819D01*
X153380952Y-71954819D02*
X153619047Y-71954819D01*
X153619047Y-71954819D02*
X153714285Y-72002438D01*
X153714285Y-72002438D02*
X153761904Y-72050057D01*
X153761904Y-72050057D02*
X153809523Y-72145295D01*
X153809523Y-72145295D02*
X153809523Y-72240533D01*
X153809523Y-72240533D02*
X153761904Y-72383390D01*
X153761904Y-72383390D02*
X153190476Y-72954819D01*
X153190476Y-72954819D02*
X153809523Y-72954819D01*
X144596666Y-62054819D02*
X144596666Y-62769104D01*
X144596666Y-62769104D02*
X144549047Y-62911961D01*
X144549047Y-62911961D02*
X144453809Y-63007200D01*
X144453809Y-63007200D02*
X144310952Y-63054819D01*
X144310952Y-63054819D02*
X144215714Y-63054819D01*
X145596666Y-63054819D02*
X145025238Y-63054819D01*
X145310952Y-63054819D02*
X145310952Y-62054819D01*
X145310952Y-62054819D02*
X145215714Y-62197676D01*
X145215714Y-62197676D02*
X145120476Y-62292914D01*
X145120476Y-62292914D02*
X145025238Y-62340533D01*
X142738095Y-92954819D02*
X142738095Y-93764342D01*
X142738095Y-93764342D02*
X142785714Y-93859580D01*
X142785714Y-93859580D02*
X142833333Y-93907200D01*
X142833333Y-93907200D02*
X142928571Y-93954819D01*
X142928571Y-93954819D02*
X143119047Y-93954819D01*
X143119047Y-93954819D02*
X143214285Y-93907200D01*
X143214285Y-93907200D02*
X143261904Y-93859580D01*
X143261904Y-93859580D02*
X143309523Y-93764342D01*
X143309523Y-93764342D02*
X143309523Y-92954819D01*
X144309523Y-93954819D02*
X143738095Y-93954819D01*
X144023809Y-93954819D02*
X144023809Y-92954819D01*
X144023809Y-92954819D02*
X143928571Y-93097676D01*
X143928571Y-93097676D02*
X143833333Y-93192914D01*
X143833333Y-93192914D02*
X143738095Y-93240533D01*
X153083333Y-92204819D02*
X152750000Y-91728628D01*
X152511905Y-92204819D02*
X152511905Y-91204819D01*
X152511905Y-91204819D02*
X152892857Y-91204819D01*
X152892857Y-91204819D02*
X152988095Y-91252438D01*
X152988095Y-91252438D02*
X153035714Y-91300057D01*
X153035714Y-91300057D02*
X153083333Y-91395295D01*
X153083333Y-91395295D02*
X153083333Y-91538152D01*
X153083333Y-91538152D02*
X153035714Y-91633390D01*
X153035714Y-91633390D02*
X152988095Y-91681009D01*
X152988095Y-91681009D02*
X152892857Y-91728628D01*
X152892857Y-91728628D02*
X152511905Y-91728628D01*
X154035714Y-92204819D02*
X153464286Y-92204819D01*
X153750000Y-92204819D02*
X153750000Y-91204819D01*
X153750000Y-91204819D02*
X153654762Y-91347676D01*
X153654762Y-91347676D02*
X153559524Y-91442914D01*
X153559524Y-91442914D02*
X153464286Y-91490533D01*
X145859580Y-83716666D02*
X145907200Y-83764285D01*
X145907200Y-83764285D02*
X145954819Y-83907142D01*
X145954819Y-83907142D02*
X145954819Y-84002380D01*
X145954819Y-84002380D02*
X145907200Y-84145237D01*
X145907200Y-84145237D02*
X145811961Y-84240475D01*
X145811961Y-84240475D02*
X145716723Y-84288094D01*
X145716723Y-84288094D02*
X145526247Y-84335713D01*
X145526247Y-84335713D02*
X145383390Y-84335713D01*
X145383390Y-84335713D02*
X145192914Y-84288094D01*
X145192914Y-84288094D02*
X145097676Y-84240475D01*
X145097676Y-84240475D02*
X145002438Y-84145237D01*
X145002438Y-84145237D02*
X144954819Y-84002380D01*
X144954819Y-84002380D02*
X144954819Y-83907142D01*
X144954819Y-83907142D02*
X145002438Y-83764285D01*
X145002438Y-83764285D02*
X145050057Y-83716666D01*
X145954819Y-82764285D02*
X145954819Y-83335713D01*
X145954819Y-83049999D02*
X144954819Y-83049999D01*
X144954819Y-83049999D02*
X145097676Y-83145237D01*
X145097676Y-83145237D02*
X145192914Y-83240475D01*
X145192914Y-83240475D02*
X145240533Y-83335713D01*
D10*
X152264580Y-112724741D02*
X152288390Y-112677122D01*
X152288390Y-112677122D02*
X152288390Y-112605693D01*
X152288390Y-112605693D02*
X152264580Y-112534265D01*
X152264580Y-112534265D02*
X152216961Y-112486646D01*
X152216961Y-112486646D02*
X152169342Y-112462836D01*
X152169342Y-112462836D02*
X152074104Y-112439027D01*
X152074104Y-112439027D02*
X152002676Y-112439027D01*
X152002676Y-112439027D02*
X151907438Y-112462836D01*
X151907438Y-112462836D02*
X151859819Y-112486646D01*
X151859819Y-112486646D02*
X151812200Y-112534265D01*
X151812200Y-112534265D02*
X151788390Y-112605693D01*
X151788390Y-112605693D02*
X151788390Y-112653312D01*
X151788390Y-112653312D02*
X151812200Y-112724741D01*
X151812200Y-112724741D02*
X151836009Y-112748550D01*
X151836009Y-112748550D02*
X152002676Y-112748550D01*
X152002676Y-112748550D02*
X152002676Y-112653312D01*
X151788390Y-112962836D02*
X152288390Y-112962836D01*
X152288390Y-112962836D02*
X151788390Y-113248550D01*
X151788390Y-113248550D02*
X152288390Y-113248550D01*
X151788390Y-113486646D02*
X152288390Y-113486646D01*
X152288390Y-113486646D02*
X152288390Y-113605694D01*
X152288390Y-113605694D02*
X152264580Y-113677122D01*
X152264580Y-113677122D02*
X152216961Y-113724741D01*
X152216961Y-113724741D02*
X152169342Y-113748551D01*
X152169342Y-113748551D02*
X152074104Y-113772360D01*
X152074104Y-113772360D02*
X152002676Y-113772360D01*
X152002676Y-113772360D02*
X151907438Y-113748551D01*
X151907438Y-113748551D02*
X151859819Y-113724741D01*
X151859819Y-113724741D02*
X151812200Y-113677122D01*
X151812200Y-113677122D02*
X151788390Y-113605694D01*
X151788390Y-113605694D02*
X151788390Y-113486646D01*
X152288390Y-114955217D02*
X152288390Y-115264741D01*
X152288390Y-115264741D02*
X152097914Y-115098074D01*
X152097914Y-115098074D02*
X152097914Y-115169503D01*
X152097914Y-115169503D02*
X152074104Y-115217122D01*
X152074104Y-115217122D02*
X152050295Y-115240931D01*
X152050295Y-115240931D02*
X152002676Y-115264741D01*
X152002676Y-115264741D02*
X151883628Y-115264741D01*
X151883628Y-115264741D02*
X151836009Y-115240931D01*
X151836009Y-115240931D02*
X151812200Y-115217122D01*
X151812200Y-115217122D02*
X151788390Y-115169503D01*
X151788390Y-115169503D02*
X151788390Y-115026646D01*
X151788390Y-115026646D02*
X151812200Y-114979027D01*
X151812200Y-114979027D02*
X151836009Y-114955217D01*
X152288390Y-115407598D02*
X151788390Y-115574264D01*
X151788390Y-115574264D02*
X152288390Y-115740931D01*
X152288390Y-115859978D02*
X152288390Y-116169502D01*
X152288390Y-116169502D02*
X152097914Y-116002835D01*
X152097914Y-116002835D02*
X152097914Y-116074264D01*
X152097914Y-116074264D02*
X152074104Y-116121883D01*
X152074104Y-116121883D02*
X152050295Y-116145692D01*
X152050295Y-116145692D02*
X152002676Y-116169502D01*
X152002676Y-116169502D02*
X151883628Y-116169502D01*
X151883628Y-116169502D02*
X151836009Y-116145692D01*
X151836009Y-116145692D02*
X151812200Y-116121883D01*
X151812200Y-116121883D02*
X151788390Y-116074264D01*
X151788390Y-116074264D02*
X151788390Y-115931407D01*
X151788390Y-115931407D02*
X151812200Y-115883788D01*
X151812200Y-115883788D02*
X151836009Y-115859978D01*
X151788390Y-97508550D02*
X152026485Y-97341884D01*
X151788390Y-97222836D02*
X152288390Y-97222836D01*
X152288390Y-97222836D02*
X152288390Y-97413312D01*
X152288390Y-97413312D02*
X152264580Y-97460931D01*
X152264580Y-97460931D02*
X152240771Y-97484741D01*
X152240771Y-97484741D02*
X152193152Y-97508550D01*
X152193152Y-97508550D02*
X152121723Y-97508550D01*
X152121723Y-97508550D02*
X152074104Y-97484741D01*
X152074104Y-97484741D02*
X152050295Y-97460931D01*
X152050295Y-97460931D02*
X152026485Y-97413312D01*
X152026485Y-97413312D02*
X152026485Y-97222836D01*
X151812200Y-97699027D02*
X151788390Y-97770455D01*
X151788390Y-97770455D02*
X151788390Y-97889503D01*
X151788390Y-97889503D02*
X151812200Y-97937122D01*
X151812200Y-97937122D02*
X151836009Y-97960931D01*
X151836009Y-97960931D02*
X151883628Y-97984741D01*
X151883628Y-97984741D02*
X151931247Y-97984741D01*
X151931247Y-97984741D02*
X151978866Y-97960931D01*
X151978866Y-97960931D02*
X152002676Y-97937122D01*
X152002676Y-97937122D02*
X152026485Y-97889503D01*
X152026485Y-97889503D02*
X152050295Y-97794265D01*
X152050295Y-97794265D02*
X152074104Y-97746646D01*
X152074104Y-97746646D02*
X152097914Y-97722836D01*
X152097914Y-97722836D02*
X152145533Y-97699027D01*
X152145533Y-97699027D02*
X152193152Y-97699027D01*
X152193152Y-97699027D02*
X152240771Y-97722836D01*
X152240771Y-97722836D02*
X152264580Y-97746646D01*
X152264580Y-97746646D02*
X152288390Y-97794265D01*
X152288390Y-97794265D02*
X152288390Y-97913312D01*
X152288390Y-97913312D02*
X152264580Y-97984741D01*
X152288390Y-98127598D02*
X152288390Y-98413312D01*
X151788390Y-98270455D02*
X152288390Y-98270455D01*
X141398200Y-109899027D02*
X141374390Y-109970455D01*
X141374390Y-109970455D02*
X141374390Y-110089503D01*
X141374390Y-110089503D02*
X141398200Y-110137122D01*
X141398200Y-110137122D02*
X141422009Y-110160931D01*
X141422009Y-110160931D02*
X141469628Y-110184741D01*
X141469628Y-110184741D02*
X141517247Y-110184741D01*
X141517247Y-110184741D02*
X141564866Y-110160931D01*
X141564866Y-110160931D02*
X141588676Y-110137122D01*
X141588676Y-110137122D02*
X141612485Y-110089503D01*
X141612485Y-110089503D02*
X141636295Y-109994265D01*
X141636295Y-109994265D02*
X141660104Y-109946646D01*
X141660104Y-109946646D02*
X141683914Y-109922836D01*
X141683914Y-109922836D02*
X141731533Y-109899027D01*
X141731533Y-109899027D02*
X141779152Y-109899027D01*
X141779152Y-109899027D02*
X141826771Y-109922836D01*
X141826771Y-109922836D02*
X141850580Y-109946646D01*
X141850580Y-109946646D02*
X141874390Y-109994265D01*
X141874390Y-109994265D02*
X141874390Y-110113312D01*
X141874390Y-110113312D02*
X141850580Y-110184741D01*
X141422009Y-110684740D02*
X141398200Y-110660931D01*
X141398200Y-110660931D02*
X141374390Y-110589502D01*
X141374390Y-110589502D02*
X141374390Y-110541883D01*
X141374390Y-110541883D02*
X141398200Y-110470455D01*
X141398200Y-110470455D02*
X141445819Y-110422836D01*
X141445819Y-110422836D02*
X141493438Y-110399026D01*
X141493438Y-110399026D02*
X141588676Y-110375217D01*
X141588676Y-110375217D02*
X141660104Y-110375217D01*
X141660104Y-110375217D02*
X141755342Y-110399026D01*
X141755342Y-110399026D02*
X141802961Y-110422836D01*
X141802961Y-110422836D02*
X141850580Y-110470455D01*
X141850580Y-110470455D02*
X141874390Y-110541883D01*
X141874390Y-110541883D02*
X141874390Y-110589502D01*
X141874390Y-110589502D02*
X141850580Y-110660931D01*
X141850580Y-110660931D02*
X141826771Y-110684740D01*
X141374390Y-111137121D02*
X141374390Y-110899026D01*
X141374390Y-110899026D02*
X141874390Y-110899026D01*
X141398200Y-107359027D02*
X141374390Y-107430455D01*
X141374390Y-107430455D02*
X141374390Y-107549503D01*
X141374390Y-107549503D02*
X141398200Y-107597122D01*
X141398200Y-107597122D02*
X141422009Y-107620931D01*
X141422009Y-107620931D02*
X141469628Y-107644741D01*
X141469628Y-107644741D02*
X141517247Y-107644741D01*
X141517247Y-107644741D02*
X141564866Y-107620931D01*
X141564866Y-107620931D02*
X141588676Y-107597122D01*
X141588676Y-107597122D02*
X141612485Y-107549503D01*
X141612485Y-107549503D02*
X141636295Y-107454265D01*
X141636295Y-107454265D02*
X141660104Y-107406646D01*
X141660104Y-107406646D02*
X141683914Y-107382836D01*
X141683914Y-107382836D02*
X141731533Y-107359027D01*
X141731533Y-107359027D02*
X141779152Y-107359027D01*
X141779152Y-107359027D02*
X141826771Y-107382836D01*
X141826771Y-107382836D02*
X141850580Y-107406646D01*
X141850580Y-107406646D02*
X141874390Y-107454265D01*
X141874390Y-107454265D02*
X141874390Y-107573312D01*
X141874390Y-107573312D02*
X141850580Y-107644741D01*
X141374390Y-107859026D02*
X141874390Y-107859026D01*
X141874390Y-107859026D02*
X141874390Y-107978074D01*
X141874390Y-107978074D02*
X141850580Y-108049502D01*
X141850580Y-108049502D02*
X141802961Y-108097121D01*
X141802961Y-108097121D02*
X141755342Y-108120931D01*
X141755342Y-108120931D02*
X141660104Y-108144740D01*
X141660104Y-108144740D02*
X141588676Y-108144740D01*
X141588676Y-108144740D02*
X141493438Y-108120931D01*
X141493438Y-108120931D02*
X141445819Y-108097121D01*
X141445819Y-108097121D02*
X141398200Y-108049502D01*
X141398200Y-108049502D02*
X141374390Y-107978074D01*
X141374390Y-107978074D02*
X141374390Y-107859026D01*
X141517247Y-108335217D02*
X141517247Y-108573312D01*
X141374390Y-108287598D02*
X141874390Y-108454264D01*
X141874390Y-108454264D02*
X141374390Y-108620931D01*
X151812200Y-110026027D02*
X151788390Y-110097455D01*
X151788390Y-110097455D02*
X151788390Y-110216503D01*
X151788390Y-110216503D02*
X151812200Y-110264122D01*
X151812200Y-110264122D02*
X151836009Y-110287931D01*
X151836009Y-110287931D02*
X151883628Y-110311741D01*
X151883628Y-110311741D02*
X151931247Y-110311741D01*
X151931247Y-110311741D02*
X151978866Y-110287931D01*
X151978866Y-110287931D02*
X152002676Y-110264122D01*
X152002676Y-110264122D02*
X152026485Y-110216503D01*
X152026485Y-110216503D02*
X152050295Y-110121265D01*
X152050295Y-110121265D02*
X152074104Y-110073646D01*
X152074104Y-110073646D02*
X152097914Y-110049836D01*
X152097914Y-110049836D02*
X152145533Y-110026027D01*
X152145533Y-110026027D02*
X152193152Y-110026027D01*
X152193152Y-110026027D02*
X152240771Y-110049836D01*
X152240771Y-110049836D02*
X152264580Y-110073646D01*
X152264580Y-110073646D02*
X152288390Y-110121265D01*
X152288390Y-110121265D02*
X152288390Y-110240312D01*
X152288390Y-110240312D02*
X152264580Y-110311741D01*
X151836009Y-110811740D02*
X151812200Y-110787931D01*
X151812200Y-110787931D02*
X151788390Y-110716502D01*
X151788390Y-110716502D02*
X151788390Y-110668883D01*
X151788390Y-110668883D02*
X151812200Y-110597455D01*
X151812200Y-110597455D02*
X151859819Y-110549836D01*
X151859819Y-110549836D02*
X151907438Y-110526026D01*
X151907438Y-110526026D02*
X152002676Y-110502217D01*
X152002676Y-110502217D02*
X152074104Y-110502217D01*
X152074104Y-110502217D02*
X152169342Y-110526026D01*
X152169342Y-110526026D02*
X152216961Y-110549836D01*
X152216961Y-110549836D02*
X152264580Y-110597455D01*
X152264580Y-110597455D02*
X152288390Y-110668883D01*
X152288390Y-110668883D02*
X152288390Y-110716502D01*
X152288390Y-110716502D02*
X152264580Y-110787931D01*
X152264580Y-110787931D02*
X152240771Y-110811740D01*
X151788390Y-111264121D02*
X151788390Y-111026026D01*
X151788390Y-111026026D02*
X152288390Y-111026026D01*
X151812200Y-107486027D02*
X151788390Y-107557455D01*
X151788390Y-107557455D02*
X151788390Y-107676503D01*
X151788390Y-107676503D02*
X151812200Y-107724122D01*
X151812200Y-107724122D02*
X151836009Y-107747931D01*
X151836009Y-107747931D02*
X151883628Y-107771741D01*
X151883628Y-107771741D02*
X151931247Y-107771741D01*
X151931247Y-107771741D02*
X151978866Y-107747931D01*
X151978866Y-107747931D02*
X152002676Y-107724122D01*
X152002676Y-107724122D02*
X152026485Y-107676503D01*
X152026485Y-107676503D02*
X152050295Y-107581265D01*
X152050295Y-107581265D02*
X152074104Y-107533646D01*
X152074104Y-107533646D02*
X152097914Y-107509836D01*
X152097914Y-107509836D02*
X152145533Y-107486027D01*
X152145533Y-107486027D02*
X152193152Y-107486027D01*
X152193152Y-107486027D02*
X152240771Y-107509836D01*
X152240771Y-107509836D02*
X152264580Y-107533646D01*
X152264580Y-107533646D02*
X152288390Y-107581265D01*
X152288390Y-107581265D02*
X152288390Y-107700312D01*
X152288390Y-107700312D02*
X152264580Y-107771741D01*
X151788390Y-107986026D02*
X152288390Y-107986026D01*
X152288390Y-107986026D02*
X152288390Y-108105074D01*
X152288390Y-108105074D02*
X152264580Y-108176502D01*
X152264580Y-108176502D02*
X152216961Y-108224121D01*
X152216961Y-108224121D02*
X152169342Y-108247931D01*
X152169342Y-108247931D02*
X152074104Y-108271740D01*
X152074104Y-108271740D02*
X152002676Y-108271740D01*
X152002676Y-108271740D02*
X151907438Y-108247931D01*
X151907438Y-108247931D02*
X151859819Y-108224121D01*
X151859819Y-108224121D02*
X151812200Y-108176502D01*
X151812200Y-108176502D02*
X151788390Y-108105074D01*
X151788390Y-108105074D02*
X151788390Y-107986026D01*
X151931247Y-108462217D02*
X151931247Y-108700312D01*
X151788390Y-108414598D02*
X152288390Y-108581264D01*
X152288390Y-108581264D02*
X151788390Y-108747931D01*
X152050295Y-99675503D02*
X152026485Y-99746931D01*
X152026485Y-99746931D02*
X152002676Y-99770741D01*
X152002676Y-99770741D02*
X151955057Y-99794550D01*
X151955057Y-99794550D02*
X151883628Y-99794550D01*
X151883628Y-99794550D02*
X151836009Y-99770741D01*
X151836009Y-99770741D02*
X151812200Y-99746931D01*
X151812200Y-99746931D02*
X151788390Y-99699312D01*
X151788390Y-99699312D02*
X151788390Y-99508836D01*
X151788390Y-99508836D02*
X152288390Y-99508836D01*
X152288390Y-99508836D02*
X152288390Y-99675503D01*
X152288390Y-99675503D02*
X152264580Y-99723122D01*
X152264580Y-99723122D02*
X152240771Y-99746931D01*
X152240771Y-99746931D02*
X152193152Y-99770741D01*
X152193152Y-99770741D02*
X152145533Y-99770741D01*
X152145533Y-99770741D02*
X152097914Y-99746931D01*
X152097914Y-99746931D02*
X152074104Y-99723122D01*
X152074104Y-99723122D02*
X152050295Y-99675503D01*
X152050295Y-99675503D02*
X152050295Y-99508836D01*
X152288390Y-100104074D02*
X152288390Y-100199312D01*
X152288390Y-100199312D02*
X152264580Y-100246931D01*
X152264580Y-100246931D02*
X152216961Y-100294550D01*
X152216961Y-100294550D02*
X152121723Y-100318360D01*
X152121723Y-100318360D02*
X151955057Y-100318360D01*
X151955057Y-100318360D02*
X151859819Y-100294550D01*
X151859819Y-100294550D02*
X151812200Y-100246931D01*
X151812200Y-100246931D02*
X151788390Y-100199312D01*
X151788390Y-100199312D02*
X151788390Y-100104074D01*
X151788390Y-100104074D02*
X151812200Y-100056455D01*
X151812200Y-100056455D02*
X151859819Y-100008836D01*
X151859819Y-100008836D02*
X151955057Y-99985027D01*
X151955057Y-99985027D02*
X152121723Y-99985027D01*
X152121723Y-99985027D02*
X152216961Y-100008836D01*
X152216961Y-100008836D02*
X152264580Y-100056455D01*
X152264580Y-100056455D02*
X152288390Y-100104074D01*
X152288390Y-100627884D02*
X152288390Y-100723122D01*
X152288390Y-100723122D02*
X152264580Y-100770741D01*
X152264580Y-100770741D02*
X152216961Y-100818360D01*
X152216961Y-100818360D02*
X152121723Y-100842170D01*
X152121723Y-100842170D02*
X151955057Y-100842170D01*
X151955057Y-100842170D02*
X151859819Y-100818360D01*
X151859819Y-100818360D02*
X151812200Y-100770741D01*
X151812200Y-100770741D02*
X151788390Y-100723122D01*
X151788390Y-100723122D02*
X151788390Y-100627884D01*
X151788390Y-100627884D02*
X151812200Y-100580265D01*
X151812200Y-100580265D02*
X151859819Y-100532646D01*
X151859819Y-100532646D02*
X151955057Y-100508837D01*
X151955057Y-100508837D02*
X152121723Y-100508837D01*
X152121723Y-100508837D02*
X152216961Y-100532646D01*
X152216961Y-100532646D02*
X152264580Y-100580265D01*
X152264580Y-100580265D02*
X152288390Y-100627884D01*
X152288390Y-100985028D02*
X152288390Y-101270742D01*
X151788390Y-101127885D02*
X152288390Y-101127885D01*
X151931247Y-104692027D02*
X151931247Y-104930122D01*
X151788390Y-104644408D02*
X152288390Y-104811074D01*
X152288390Y-104811074D02*
X151788390Y-104977741D01*
X151788390Y-105144407D02*
X152288390Y-105144407D01*
X152288390Y-105144407D02*
X152288390Y-105263455D01*
X152288390Y-105263455D02*
X152264580Y-105334883D01*
X152264580Y-105334883D02*
X152216961Y-105382502D01*
X152216961Y-105382502D02*
X152169342Y-105406312D01*
X152169342Y-105406312D02*
X152074104Y-105430121D01*
X152074104Y-105430121D02*
X152002676Y-105430121D01*
X152002676Y-105430121D02*
X151907438Y-105406312D01*
X151907438Y-105406312D02*
X151859819Y-105382502D01*
X151859819Y-105382502D02*
X151812200Y-105334883D01*
X151812200Y-105334883D02*
X151788390Y-105263455D01*
X151788390Y-105263455D02*
X151788390Y-105144407D01*
X151788390Y-105644407D02*
X152288390Y-105644407D01*
X152288390Y-105644407D02*
X152288390Y-105763455D01*
X152288390Y-105763455D02*
X152264580Y-105834883D01*
X152264580Y-105834883D02*
X152216961Y-105882502D01*
X152216961Y-105882502D02*
X152169342Y-105906312D01*
X152169342Y-105906312D02*
X152074104Y-105930121D01*
X152074104Y-105930121D02*
X152002676Y-105930121D01*
X152002676Y-105930121D02*
X151907438Y-105906312D01*
X151907438Y-105906312D02*
X151859819Y-105882502D01*
X151859819Y-105882502D02*
X151812200Y-105834883D01*
X151812200Y-105834883D02*
X151788390Y-105763455D01*
X151788390Y-105763455D02*
X151788390Y-105644407D01*
X151788390Y-106430121D02*
X152026485Y-106263455D01*
X151788390Y-106144407D02*
X152288390Y-106144407D01*
X152288390Y-106144407D02*
X152288390Y-106334883D01*
X152288390Y-106334883D02*
X152264580Y-106382502D01*
X152264580Y-106382502D02*
X152240771Y-106406312D01*
X152240771Y-106406312D02*
X152193152Y-106430121D01*
X152193152Y-106430121D02*
X152121723Y-106430121D01*
X152121723Y-106430121D02*
X152074104Y-106406312D01*
X152074104Y-106406312D02*
X152050295Y-106382502D01*
X152050295Y-106382502D02*
X152026485Y-106334883D01*
X152026485Y-106334883D02*
X152026485Y-106144407D01*
X141850580Y-112597741D02*
X141874390Y-112550122D01*
X141874390Y-112550122D02*
X141874390Y-112478693D01*
X141874390Y-112478693D02*
X141850580Y-112407265D01*
X141850580Y-112407265D02*
X141802961Y-112359646D01*
X141802961Y-112359646D02*
X141755342Y-112335836D01*
X141755342Y-112335836D02*
X141660104Y-112312027D01*
X141660104Y-112312027D02*
X141588676Y-112312027D01*
X141588676Y-112312027D02*
X141493438Y-112335836D01*
X141493438Y-112335836D02*
X141445819Y-112359646D01*
X141445819Y-112359646D02*
X141398200Y-112407265D01*
X141398200Y-112407265D02*
X141374390Y-112478693D01*
X141374390Y-112478693D02*
X141374390Y-112526312D01*
X141374390Y-112526312D02*
X141398200Y-112597741D01*
X141398200Y-112597741D02*
X141422009Y-112621550D01*
X141422009Y-112621550D02*
X141588676Y-112621550D01*
X141588676Y-112621550D02*
X141588676Y-112526312D01*
X141374390Y-112835836D02*
X141874390Y-112835836D01*
X141874390Y-112835836D02*
X141374390Y-113121550D01*
X141374390Y-113121550D02*
X141874390Y-113121550D01*
X141374390Y-113359646D02*
X141874390Y-113359646D01*
X141874390Y-113359646D02*
X141874390Y-113478694D01*
X141874390Y-113478694D02*
X141850580Y-113550122D01*
X141850580Y-113550122D02*
X141802961Y-113597741D01*
X141802961Y-113597741D02*
X141755342Y-113621551D01*
X141755342Y-113621551D02*
X141660104Y-113645360D01*
X141660104Y-113645360D02*
X141588676Y-113645360D01*
X141588676Y-113645360D02*
X141493438Y-113621551D01*
X141493438Y-113621551D02*
X141445819Y-113597741D01*
X141445819Y-113597741D02*
X141398200Y-113550122D01*
X141398200Y-113550122D02*
X141374390Y-113478694D01*
X141374390Y-113478694D02*
X141374390Y-113359646D01*
X156348609Y-108362782D02*
X156396228Y-108219925D01*
X156396228Y-108219925D02*
X156443847Y-108172306D01*
X156443847Y-108172306D02*
X156539085Y-108124687D01*
X156539085Y-108124687D02*
X156681942Y-108124687D01*
X156681942Y-108124687D02*
X156777180Y-108172306D01*
X156777180Y-108172306D02*
X156824800Y-108219925D01*
X156824800Y-108219925D02*
X156872419Y-108315163D01*
X156872419Y-108315163D02*
X156872419Y-108696115D01*
X156872419Y-108696115D02*
X155872419Y-108696115D01*
X155872419Y-108696115D02*
X155872419Y-108362782D01*
X155872419Y-108362782D02*
X155920038Y-108267544D01*
X155920038Y-108267544D02*
X155967657Y-108219925D01*
X155967657Y-108219925D02*
X156062895Y-108172306D01*
X156062895Y-108172306D02*
X156158133Y-108172306D01*
X156158133Y-108172306D02*
X156253371Y-108219925D01*
X156253371Y-108219925D02*
X156300990Y-108267544D01*
X156300990Y-108267544D02*
X156348609Y-108362782D01*
X156348609Y-108362782D02*
X156348609Y-108696115D01*
X156872419Y-107696115D02*
X155872419Y-107696115D01*
X155872419Y-107696115D02*
X156872419Y-107124687D01*
X156872419Y-107124687D02*
X155872419Y-107124687D01*
X155872419Y-106458020D02*
X155872419Y-106267544D01*
X155872419Y-106267544D02*
X155920038Y-106172306D01*
X155920038Y-106172306D02*
X156015276Y-106077068D01*
X156015276Y-106077068D02*
X156205752Y-106029449D01*
X156205752Y-106029449D02*
X156539085Y-106029449D01*
X156539085Y-106029449D02*
X156729561Y-106077068D01*
X156729561Y-106077068D02*
X156824800Y-106172306D01*
X156824800Y-106172306D02*
X156872419Y-106267544D01*
X156872419Y-106267544D02*
X156872419Y-106458020D01*
X156872419Y-106458020D02*
X156824800Y-106553258D01*
X156824800Y-106553258D02*
X156729561Y-106648496D01*
X156729561Y-106648496D02*
X156539085Y-106696115D01*
X156539085Y-106696115D02*
X156205752Y-106696115D01*
X156205752Y-106696115D02*
X156015276Y-106648496D01*
X156015276Y-106648496D02*
X155920038Y-106553258D01*
X155920038Y-106553258D02*
X155872419Y-106458020D01*
X155872419Y-105410401D02*
X155872419Y-105315163D01*
X155872419Y-105315163D02*
X155920038Y-105219925D01*
X155920038Y-105219925D02*
X155967657Y-105172306D01*
X155967657Y-105172306D02*
X156062895Y-105124687D01*
X156062895Y-105124687D02*
X156253371Y-105077068D01*
X156253371Y-105077068D02*
X156491466Y-105077068D01*
X156491466Y-105077068D02*
X156681942Y-105124687D01*
X156681942Y-105124687D02*
X156777180Y-105172306D01*
X156777180Y-105172306D02*
X156824800Y-105219925D01*
X156824800Y-105219925D02*
X156872419Y-105315163D01*
X156872419Y-105315163D02*
X156872419Y-105410401D01*
X156872419Y-105410401D02*
X156824800Y-105505639D01*
X156824800Y-105505639D02*
X156777180Y-105553258D01*
X156777180Y-105553258D02*
X156681942Y-105600877D01*
X156681942Y-105600877D02*
X156491466Y-105648496D01*
X156491466Y-105648496D02*
X156253371Y-105648496D01*
X156253371Y-105648496D02*
X156062895Y-105600877D01*
X156062895Y-105600877D02*
X155967657Y-105553258D01*
X155967657Y-105553258D02*
X155920038Y-105505639D01*
X155920038Y-105505639D02*
X155872419Y-105410401D01*
X156300990Y-104505639D02*
X156253371Y-104600877D01*
X156253371Y-104600877D02*
X156205752Y-104648496D01*
X156205752Y-104648496D02*
X156110514Y-104696115D01*
X156110514Y-104696115D02*
X156062895Y-104696115D01*
X156062895Y-104696115D02*
X155967657Y-104648496D01*
X155967657Y-104648496D02*
X155920038Y-104600877D01*
X155920038Y-104600877D02*
X155872419Y-104505639D01*
X155872419Y-104505639D02*
X155872419Y-104315163D01*
X155872419Y-104315163D02*
X155920038Y-104219925D01*
X155920038Y-104219925D02*
X155967657Y-104172306D01*
X155967657Y-104172306D02*
X156062895Y-104124687D01*
X156062895Y-104124687D02*
X156110514Y-104124687D01*
X156110514Y-104124687D02*
X156205752Y-104172306D01*
X156205752Y-104172306D02*
X156253371Y-104219925D01*
X156253371Y-104219925D02*
X156300990Y-104315163D01*
X156300990Y-104315163D02*
X156300990Y-104505639D01*
X156300990Y-104505639D02*
X156348609Y-104600877D01*
X156348609Y-104600877D02*
X156396228Y-104648496D01*
X156396228Y-104648496D02*
X156491466Y-104696115D01*
X156491466Y-104696115D02*
X156681942Y-104696115D01*
X156681942Y-104696115D02*
X156777180Y-104648496D01*
X156777180Y-104648496D02*
X156824800Y-104600877D01*
X156824800Y-104600877D02*
X156872419Y-104505639D01*
X156872419Y-104505639D02*
X156872419Y-104315163D01*
X156872419Y-104315163D02*
X156824800Y-104219925D01*
X156824800Y-104219925D02*
X156777180Y-104172306D01*
X156777180Y-104172306D02*
X156681942Y-104124687D01*
X156681942Y-104124687D02*
X156491466Y-104124687D01*
X156491466Y-104124687D02*
X156396228Y-104172306D01*
X156396228Y-104172306D02*
X156348609Y-104219925D01*
X156348609Y-104219925D02*
X156300990Y-104315163D01*
X155872419Y-103219925D02*
X155872419Y-103696115D01*
X155872419Y-103696115D02*
X156348609Y-103743734D01*
X156348609Y-103743734D02*
X156300990Y-103696115D01*
X156300990Y-103696115D02*
X156253371Y-103600877D01*
X156253371Y-103600877D02*
X156253371Y-103362782D01*
X156253371Y-103362782D02*
X156300990Y-103267544D01*
X156300990Y-103267544D02*
X156348609Y-103219925D01*
X156348609Y-103219925D02*
X156443847Y-103172306D01*
X156443847Y-103172306D02*
X156681942Y-103172306D01*
X156681942Y-103172306D02*
X156777180Y-103219925D01*
X156777180Y-103219925D02*
X156824800Y-103267544D01*
X156824800Y-103267544D02*
X156872419Y-103362782D01*
X156872419Y-103362782D02*
X156872419Y-103600877D01*
X156872419Y-103600877D02*
X156824800Y-103696115D01*
X156824800Y-103696115D02*
X156777180Y-103743734D01*
X141874390Y-115494931D02*
X141874390Y-115256836D01*
X141874390Y-115256836D02*
X141636295Y-115233027D01*
X141636295Y-115233027D02*
X141660104Y-115256836D01*
X141660104Y-115256836D02*
X141683914Y-115304455D01*
X141683914Y-115304455D02*
X141683914Y-115423503D01*
X141683914Y-115423503D02*
X141660104Y-115471122D01*
X141660104Y-115471122D02*
X141636295Y-115494931D01*
X141636295Y-115494931D02*
X141588676Y-115518741D01*
X141588676Y-115518741D02*
X141469628Y-115518741D01*
X141469628Y-115518741D02*
X141422009Y-115494931D01*
X141422009Y-115494931D02*
X141398200Y-115471122D01*
X141398200Y-115471122D02*
X141374390Y-115423503D01*
X141374390Y-115423503D02*
X141374390Y-115304455D01*
X141374390Y-115304455D02*
X141398200Y-115256836D01*
X141398200Y-115256836D02*
X141422009Y-115233027D01*
X141874390Y-115661598D02*
X141374390Y-115828264D01*
X141374390Y-115828264D02*
X141874390Y-115994931D01*
X151788390Y-102556836D02*
X152288390Y-102556836D01*
X151788390Y-102794931D02*
X152288390Y-102794931D01*
X152288390Y-102794931D02*
X151788390Y-103080645D01*
X151788390Y-103080645D02*
X152288390Y-103080645D01*
X152288390Y-103247313D02*
X152288390Y-103533027D01*
X151788390Y-103390170D02*
X152288390Y-103390170D01*
D11*
X137214286Y-91454819D02*
X137785714Y-91454819D01*
X137500000Y-92454819D02*
X137500000Y-91454819D01*
X138119048Y-92454819D02*
X138119048Y-91454819D01*
X138119048Y-91931009D02*
X138690476Y-91931009D01*
X138690476Y-92454819D02*
X138690476Y-91454819D01*
X139690476Y-92454819D02*
X139119048Y-92454819D01*
X139404762Y-92454819D02*
X139404762Y-91454819D01*
X139404762Y-91454819D02*
X139309524Y-91597676D01*
X139309524Y-91597676D02*
X139214286Y-91692914D01*
X139214286Y-91692914D02*
X139119048Y-91740533D01*
X142109580Y-83866666D02*
X142157200Y-83914285D01*
X142157200Y-83914285D02*
X142204819Y-84057142D01*
X142204819Y-84057142D02*
X142204819Y-84152380D01*
X142204819Y-84152380D02*
X142157200Y-84295237D01*
X142157200Y-84295237D02*
X142061961Y-84390475D01*
X142061961Y-84390475D02*
X141966723Y-84438094D01*
X141966723Y-84438094D02*
X141776247Y-84485713D01*
X141776247Y-84485713D02*
X141633390Y-84485713D01*
X141633390Y-84485713D02*
X141442914Y-84438094D01*
X141442914Y-84438094D02*
X141347676Y-84390475D01*
X141347676Y-84390475D02*
X141252438Y-84295237D01*
X141252438Y-84295237D02*
X141204819Y-84152380D01*
X141204819Y-84152380D02*
X141204819Y-84057142D01*
X141204819Y-84057142D02*
X141252438Y-83914285D01*
X141252438Y-83914285D02*
X141300057Y-83866666D01*
X141300057Y-83485713D02*
X141252438Y-83438094D01*
X141252438Y-83438094D02*
X141204819Y-83342856D01*
X141204819Y-83342856D02*
X141204819Y-83104761D01*
X141204819Y-83104761D02*
X141252438Y-83009523D01*
X141252438Y-83009523D02*
X141300057Y-82961904D01*
X141300057Y-82961904D02*
X141395295Y-82914285D01*
X141395295Y-82914285D02*
X141490533Y-82914285D01*
X141490533Y-82914285D02*
X141633390Y-82961904D01*
X141633390Y-82961904D02*
X142204819Y-83533332D01*
X142204819Y-83533332D02*
X142204819Y-82914285D01*
D12*
%TO.C,A1*%
X112500000Y-68230000D02*
X112020000Y-68230000D01*
X112500000Y-68230000D02*
X112500000Y-68650000D01*
X112500000Y-70770000D02*
X112500000Y-71190000D01*
X112500000Y-73310000D02*
X112500000Y-73730000D01*
X112500000Y-75850000D02*
X112500000Y-76270000D01*
X112500000Y-78390000D02*
X112500000Y-78810000D01*
X112500000Y-80930000D02*
X112500000Y-81350000D01*
X112500000Y-83470000D02*
X112500000Y-83890000D01*
X112500000Y-86010000D02*
X112500000Y-86430000D01*
X112500000Y-88550000D02*
X112500000Y-88970000D01*
X112500000Y-91090000D02*
X112500000Y-91510000D01*
X112500000Y-93630000D02*
X112500000Y-94050000D01*
X112500000Y-96170000D02*
X112500000Y-96590000D01*
X112500000Y-98710000D02*
X112500000Y-99130000D01*
X112500000Y-101250000D02*
X112500000Y-101670000D01*
X112500000Y-103790000D02*
X112500000Y-104210000D01*
X112500000Y-106330000D02*
X112500000Y-106750000D01*
X112500000Y-108870000D02*
X112500000Y-109290000D01*
X112500000Y-111410000D02*
X112500000Y-111830000D01*
X112500000Y-113950000D02*
X112500000Y-114370000D01*
X112530324Y-66110000D02*
X112020000Y-66110000D01*
X113110000Y-65690000D02*
X115600000Y-65690000D01*
X115600000Y-65690000D02*
X116947940Y-65690000D01*
X117872061Y-65690000D02*
X118875000Y-65690000D01*
X127345000Y-65690000D02*
X128347939Y-65690000D01*
X129272061Y-65690000D02*
X130620000Y-65690000D01*
X133110000Y-65690000D02*
X130620000Y-65690000D01*
X133720000Y-68230000D02*
X133720000Y-68650000D01*
X133720000Y-70770000D02*
X133720000Y-71190000D01*
X133720000Y-73310000D02*
X133720000Y-73730000D01*
X133720000Y-75850000D02*
X133720000Y-76270000D01*
X133720000Y-78390000D02*
X133720000Y-78810000D01*
X133720000Y-80930000D02*
X133720000Y-81350000D01*
X133720000Y-83470000D02*
X133720000Y-83890000D01*
X133720000Y-86010000D02*
X133720000Y-86430000D01*
X133720000Y-88550000D02*
X133720000Y-88970000D01*
X133720000Y-91090000D02*
X133720000Y-91510000D01*
X133720000Y-93630000D02*
X133720000Y-94050000D01*
X133720000Y-96170000D02*
X133720000Y-96590000D01*
X133720000Y-98710000D02*
X133720000Y-99130000D01*
X133720000Y-101250000D02*
X133720000Y-101670000D01*
X133720000Y-103790000D02*
X133720000Y-104210000D01*
X133720000Y-106330000D02*
X133720000Y-106750000D01*
X133720000Y-108870000D02*
X133720000Y-109290000D01*
X133720000Y-111410000D02*
X133720000Y-111830000D01*
X133720000Y-113950000D02*
X133720000Y-114370000D01*
X112530324Y-66110000D02*
G75*
G02*
X113110000Y-65690000I579692J-190051D01*
G01*
X112746682Y-116790000D02*
G75*
G02*
X112530324Y-116489937I363328J490008D01*
G01*
X133110000Y-65690000D02*
G75*
G02*
X133689676Y-66110063I0J-610000D01*
G01*
X133689676Y-116489937D02*
G75*
G02*
X133473322Y-116790005I-579276J189637D01*
G01*
X118875000Y-65690000D02*
X127345000Y-65690000D01*
D13*
%TO.C,U2*%
X149167500Y-73967500D02*
X149167500Y-74867500D01*
X149167500Y-74867500D02*
X150767500Y-74867500D01*
X149167500Y-79067500D02*
X150767500Y-79067500D01*
X149167500Y-79967500D02*
X149167500Y-79067500D01*
X149567500Y-79517500D02*
X150267500Y-79367500D01*
X150267500Y-79367500D02*
X150267500Y-79667500D01*
X150267500Y-79667500D02*
X149567500Y-79517500D01*
X150767500Y-73967500D02*
X149167500Y-73967500D01*
X150767500Y-73967500D02*
X150767500Y-75067500D01*
X150767500Y-73967500D02*
X156767500Y-73967500D01*
X150767500Y-74867500D02*
X155067500Y-74867500D01*
X150767500Y-76867500D02*
X150767500Y-77067500D01*
X151517500Y-78097500D02*
X155067500Y-78097500D01*
X150767500Y-78867500D02*
X150767500Y-79967500D01*
X150767500Y-79967500D02*
X149167500Y-79967500D01*
X152517500Y-76267500D02*
X152517500Y-77617500D01*
X152517500Y-77617500D02*
X156767500Y-77617500D01*
X153167500Y-74867500D02*
X153167500Y-75817500D01*
X153167500Y-78097500D02*
X153167500Y-79047500D01*
X155067500Y-74867500D02*
X155067500Y-75817500D01*
X155067500Y-75817500D02*
X151517500Y-75817500D01*
X155067500Y-78097500D02*
X155067500Y-79047500D01*
X155067500Y-79047500D02*
X150767500Y-79047500D01*
X156767500Y-73967500D02*
X156767500Y-79967500D01*
X156767500Y-76267500D02*
X152517500Y-76267500D01*
X156767500Y-76267500D02*
X156767500Y-76267500D01*
X156767500Y-79967500D02*
X150767500Y-79967500D01*
D12*
%TO.C,U1*%
X144015000Y-90375000D02*
X143685000Y-90615000D01*
X143685000Y-90135000D01*
X144015000Y-90375000D01*
G36*
X144015000Y-90375000D02*
G01*
X143685000Y-90615000D01*
X143685000Y-90135000D01*
X144015000Y-90375000D01*
G37*
X148735000Y-93485000D02*
X148010000Y-93485000D01*
X148735000Y-92760000D02*
X148735000Y-93485000D01*
X148735000Y-89265000D02*
X148735000Y-89990000D01*
X148010000Y-89265000D02*
X148735000Y-89265000D01*
X145240000Y-93485000D02*
X144515000Y-93485000D01*
X144515000Y-93485000D02*
X144515000Y-92760000D01*
X144515000Y-89990000D02*
X144515000Y-89265000D01*
X144515000Y-89265000D02*
X145240000Y-89265000D01*
%TO.C,C1*%
X147735000Y-83238748D02*
X147735000Y-83761252D01*
X146265000Y-83238748D02*
X146265000Y-83761252D01*
%TO.C,BNO085_Halley1*%
D10*
X154860000Y-96440000D02*
X138860000Y-96440000D01*
X138860000Y-116940000D01*
X154860000Y-116940000D01*
X154860000Y-96440000D01*
D12*
%TO.C,TH1*%
X139870000Y-91836359D02*
X139870000Y-92143641D01*
X140630000Y-91836359D02*
X140630000Y-92143641D01*
%TO.C,C2*%
X142515000Y-83238748D02*
X142515000Y-83761252D01*
X143985000Y-83238748D02*
X143985000Y-83761252D01*
%TD*%
%LPC*%
D14*
%TO.C,A1*%
X113420000Y-67170000D03*
D15*
X113420000Y-69710000D03*
D16*
X113420000Y-72250000D03*
D15*
X113420000Y-74790000D03*
X113420000Y-77330000D03*
X113420000Y-79870000D03*
X113420000Y-82410000D03*
D16*
X113420000Y-84950000D03*
D15*
X113420000Y-87490000D03*
X113420000Y-90030000D03*
X113420000Y-92570000D03*
X113420000Y-95110000D03*
D16*
X113420000Y-97650000D03*
D15*
X113420000Y-100190000D03*
X113420000Y-102730000D03*
X113420000Y-105270000D03*
X113420000Y-107810000D03*
D16*
X113420000Y-110350000D03*
D15*
X113420000Y-112890000D03*
X113420000Y-115430000D03*
X132800000Y-115430000D03*
X132800000Y-112890000D03*
D14*
X132800000Y-110350000D03*
D15*
X132800000Y-107810000D03*
X132800000Y-105270000D03*
X132800000Y-102730000D03*
X132800000Y-100190000D03*
D14*
X132800000Y-97650000D03*
D15*
X132800000Y-95110000D03*
X132800000Y-92570000D03*
X132800000Y-90030000D03*
X132800000Y-87490000D03*
D14*
X132800000Y-84950000D03*
D15*
X132800000Y-82410000D03*
X132800000Y-79870000D03*
X132800000Y-77330000D03*
X132800000Y-74790000D03*
D14*
X132800000Y-72250000D03*
D15*
X132800000Y-69710000D03*
X132800000Y-67170000D03*
D17*
X122110000Y-67000000D03*
X124110000Y-67000000D03*
%TD*%
D18*
%TO.C,U2*%
X150517500Y-77967500D03*
X150517500Y-75967500D03*
%TD*%
D19*
%TO.C,J1*%
X141885000Y-69195000D03*
X142660000Y-69195000D03*
D20*
X143360000Y-69195000D03*
X143860000Y-69195000D03*
X144360000Y-69195000D03*
X144860000Y-69195000D03*
X145360000Y-69195000D03*
X145860000Y-69195000D03*
X146360000Y-69195000D03*
X146860000Y-69195000D03*
D19*
X147560000Y-69195000D03*
X148335000Y-69195000D03*
D21*
X142220000Y-67750000D03*
X148000000Y-67750000D03*
%TD*%
D22*
%TO.C,REF\u002A\u002A*%
X158250000Y-65000000D03*
%TD*%
%TO.C,REF\u002A\u002A*%
X158250000Y-114750000D03*
%TD*%
%TO.C,REF\u002A\u002A*%
X105250000Y-114750000D03*
%TD*%
%TO.C,REF\u002A\u002A*%
X105000000Y-65000000D03*
%TD*%
D23*
%TO.C,U1*%
X146625000Y-91375000D03*
D24*
X145625000Y-89437500D03*
X146125000Y-89437500D03*
X146625000Y-89437500D03*
X147125000Y-89437500D03*
X147625000Y-89437500D03*
D25*
X148562500Y-90375000D03*
X148562500Y-90875000D03*
X148562500Y-91375000D03*
X148562500Y-91875000D03*
X148562500Y-92375000D03*
D24*
X147625000Y-93312500D03*
X147125000Y-93312500D03*
X146625000Y-93312500D03*
X146125000Y-93312500D03*
X145625000Y-93312500D03*
D25*
X144687500Y-92375000D03*
X144687500Y-91875000D03*
X144687500Y-91375000D03*
X144687500Y-90875000D03*
X144687500Y-90375000D03*
%TD*%
D26*
%TO.C,R1*%
X151750000Y-91500000D03*
X151750000Y-92140000D03*
%TD*%
D27*
%TO.C,C1*%
X147000000Y-84450000D03*
X147000000Y-82550000D03*
%TD*%
D18*
%TO.C,BNO085_Halley1*%
X140220000Y-115580000D03*
X140220000Y-113040000D03*
X140220000Y-110500000D03*
X140220000Y-107960000D03*
X140220000Y-105420000D03*
X140220000Y-102880000D03*
X140220000Y-100340000D03*
X140220000Y-97800000D03*
X153500000Y-115580000D03*
X153500000Y-113040000D03*
X153500000Y-110500000D03*
X153500000Y-107960000D03*
X153500000Y-105420000D03*
X153500000Y-102880000D03*
X153500000Y-100340000D03*
X153500000Y-97800000D03*
%TD*%
D28*
%TO.C,TH1*%
X140250000Y-91480000D03*
X140250000Y-92500000D03*
%TD*%
D27*
%TO.C,C2*%
X143250000Y-82550000D03*
X143250000Y-84450000D03*
%TD*%
%LPD*%
M02*
