%TF.GenerationSoftware,KiCad,Pcbnew,9.0.7*%
%TF.CreationDate,2026-02-24T10:12:52+07:00*%
%TF.ProjectId,Physics_Lab_2,50687973-6963-4735-9f4c-61625f322e6b,rev?*%
%TF.SameCoordinates,Original*%
%TF.FileFunction,Copper,L1,Top*%
%TF.FilePolarity,Positive*%
%FSLAX46Y46*%
G04 Gerber Fmt 4.6, Leading zero omitted, Abs format (unit mm)*
G04 Created by KiCad (PCBNEW 9.0.7) date 2026-02-24 10:12:52*
%MOMM*%
%LPD*%
G01*
G04 APERTURE LIST*
G04 Aperture macros list*
%AMRoundRect*
0 Rectangle with rounded corners*
0 $1 Rounding radius*
0 $2 $3 $4 $5 $6 $7 $8 $9 X,Y pos of 4 corners*
0 Add a 4 corners polygon primitive as box body*
4,1,4,$2,$3,$4,$5,$6,$7,$8,$9,$2,$3,0*
0 Add four circle primitives for the rounded corners*
1,1,$1+$1,$2,$3*
1,1,$1+$1,$4,$5*
1,1,$1+$1,$6,$7*
1,1,$1+$1,$8,$9*
0 Add four rect primitives between the rounded corners*
20,1,$1+$1,$2,$3,$4,$5,0*
20,1,$1+$1,$4,$5,$6,$7,0*
20,1,$1+$1,$6,$7,$8,$9,0*
20,1,$1+$1,$8,$9,$2,$3,0*%
%AMFreePoly0*
4,1,37,0.800000,0.796148,0.878414,0.796148,1.032228,0.765552,1.177117,0.705537,1.307515,0.618408,1.418408,0.507515,1.505537,0.377117,1.565552,0.232228,1.596148,0.078414,1.596148,-0.078414,1.565552,-0.232228,1.505537,-0.377117,1.418408,-0.507515,1.307515,-0.618408,1.177117,-0.705537,1.032228,-0.765552,0.878414,-0.796148,0.800000,-0.796148,0.800000,-0.800000,-1.400000,-0.800000,
-1.403843,-0.796157,-1.439018,-0.796157,-1.511114,-0.766294,-1.566294,-0.711114,-1.596157,-0.639018,-1.596157,-0.603843,-1.600000,-0.600000,-1.600000,0.600000,-1.596157,0.603843,-1.596157,0.639018,-1.566294,0.711114,-1.511114,0.766294,-1.439018,0.796157,-1.403843,0.796157,-1.400000,0.800000,0.800000,0.800000,0.800000,0.796148,0.800000,0.796148,$1*%
%AMFreePoly1*
4,1,37,1.403843,0.796157,1.439018,0.796157,1.511114,0.766294,1.566294,0.711114,1.596157,0.639018,1.596157,0.603843,1.600000,0.600000,1.600000,-0.600000,1.596157,-0.603843,1.596157,-0.639018,1.566294,-0.711114,1.511114,-0.766294,1.439018,-0.796157,1.403843,-0.796157,1.400000,-0.800000,-0.800000,-0.800000,-0.800000,-0.796148,-0.878414,-0.796148,-1.032228,-0.765552,-1.177117,-0.705537,
-1.307515,-0.618408,-1.418408,-0.507515,-1.505537,-0.377117,-1.565552,-0.232228,-1.596148,-0.078414,-1.596148,0.078414,-1.565552,0.232228,-1.505537,0.377117,-1.418408,0.507515,-1.307515,0.618408,-1.177117,0.705537,-1.032228,0.765552,-0.878414,0.796148,-0.800000,0.796148,-0.800000,0.800000,1.400000,0.800000,1.403843,0.796157,1.403843,0.796157,$1*%
G04 Aperture macros list end*
%TA.AperFunction,SMDPad,CuDef*%
%ADD10FreePoly0,0.000000*%
%TD*%
%TA.AperFunction,SMDPad,CuDef*%
%ADD11RoundRect,0.800000X-0.800000X-0.000010X0.800000X-0.000010X0.800000X0.000010X-0.800000X0.000010X0*%
%TD*%
%TA.AperFunction,SMDPad,CuDef*%
%ADD12FreePoly1,0.000000*%
%TD*%
%TA.AperFunction,ComponentPad*%
%ADD13RoundRect,0.300000X-0.450000X-0.450000X0.450000X-0.450000X0.450000X0.450000X-0.450000X0.450000X0*%
%TD*%
%TA.AperFunction,ComponentPad*%
%ADD14C,1.400000*%
%TD*%
%TA.AperFunction,ComponentPad*%
%ADD15O,1.000000X1.600000*%
%TD*%
%TA.AperFunction,ComponentPad*%
%ADD16O,1.000000X2.100000*%
%TD*%
%TA.AperFunction,SMDPad,CuDef*%
%ADD17R,0.600000X1.450000*%
%TD*%
%TA.AperFunction,SMDPad,CuDef*%
%ADD18R,0.300000X1.450000*%
%TD*%
%TA.AperFunction,ComponentPad*%
%ADD19C,3.800000*%
%TD*%
%TA.AperFunction,HeatsinkPad*%
%ADD20R,2.500000X2.500000*%
%TD*%
%TA.AperFunction,SMDPad,CuDef*%
%ADD21RoundRect,0.062500X-0.062500X-0.350000X0.062500X-0.350000X0.062500X0.350000X-0.062500X0.350000X0*%
%TD*%
%TA.AperFunction,SMDPad,CuDef*%
%ADD22RoundRect,0.062500X-0.350000X-0.062500X0.350000X-0.062500X0.350000X0.062500X-0.350000X0.062500X0*%
%TD*%
%TA.AperFunction,SMDPad,CuDef*%
%ADD23RoundRect,0.100000X0.100000X-0.130000X0.100000X0.130000X-0.100000X0.130000X-0.100000X-0.130000X0*%
%TD*%
%TA.AperFunction,SMDPad,CuDef*%
%ADD24RoundRect,0.250000X-0.475000X0.250000X-0.475000X-0.250000X0.475000X-0.250000X0.475000X0.250000X0*%
%TD*%
%TA.AperFunction,SMDPad,CuDef*%
%ADD25RoundRect,0.135000X-0.185000X0.135000X-0.185000X-0.135000X0.185000X-0.135000X0.185000X0.135000X0*%
%TD*%
%TA.AperFunction,ViaPad*%
%ADD26C,0.600000*%
%TD*%
%TA.AperFunction,Conductor*%
%ADD27C,0.200000*%
%TD*%
G04 APERTURE END LIST*
D10*
%TO.P,A1,1,GPIO0*%
%TO.N,unconnected-(A1-GPIO0-Pad1)*%
X113420000Y-67170000D03*
D11*
%TO.P,A1,2,GPIO1*%
%TO.N,unconnected-(A1-GPIO1-Pad2)*%
X113420000Y-69710000D03*
D12*
%TO.P,A1,3,GND*%
%TO.N,GND*%
X113420000Y-72250000D03*
D11*
%TO.P,A1,4,GPIO2*%
%TO.N,Net-(A1-GPIO2)*%
X113420000Y-74790000D03*
%TO.P,A1,5,GPIO3*%
%TO.N,Net-(A1-GPIO3)*%
X113420000Y-77330000D03*
%TO.P,A1,6,GPIO4*%
%TO.N,unconnected-(A1-GPIO4-Pad6)*%
X113420000Y-79870000D03*
%TO.P,A1,7,GPIO5*%
%TO.N,unconnected-(A1-GPIO5-Pad7)*%
X113420000Y-82410000D03*
D12*
%TO.P,A1,8,GND*%
%TO.N,GND*%
X113420000Y-84950000D03*
D11*
%TO.P,A1,9,GPIO6*%
%TO.N,unconnected-(A1-GPIO6-Pad9)*%
X113420000Y-87490000D03*
%TO.P,A1,10,GPIO7*%
%TO.N,unconnected-(A1-GPIO7-Pad10)*%
X113420000Y-90030000D03*
%TO.P,A1,11,GPIO8*%
%TO.N,unconnected-(A1-GPIO8-Pad11)*%
X113420000Y-92570000D03*
%TO.P,A1,12,GPIO9*%
%TO.N,unconnected-(A1-GPIO9-Pad12)*%
X113420000Y-95110000D03*
D12*
%TO.P,A1,13,GND*%
%TO.N,GND*%
X113420000Y-97650000D03*
D11*
%TO.P,A1,14,GPIO10*%
%TO.N,unconnected-(A1-GPIO10-Pad14)*%
X113420000Y-100190000D03*
%TO.P,A1,15,GPIO11*%
%TO.N,unconnected-(A1-GPIO11-Pad15)*%
X113420000Y-102730000D03*
%TO.P,A1,16,GPIO12*%
%TO.N,unconnected-(A1-GPIO12-Pad16)*%
X113420000Y-105270000D03*
%TO.P,A1,17,GPIO13*%
%TO.N,unconnected-(A1-GPIO13-Pad17)*%
X113420000Y-107810000D03*
D12*
%TO.P,A1,18,GND*%
%TO.N,GND*%
X113420000Y-110350000D03*
D11*
%TO.P,A1,19,GPIO14*%
%TO.N,unconnected-(A1-GPIO14-Pad19)*%
X113420000Y-112890000D03*
%TO.P,A1,20,GPIO15*%
%TO.N,unconnected-(A1-GPIO15-Pad20)*%
X113420000Y-115430000D03*
%TO.P,A1,21,GPIO16*%
%TO.N,unconnected-(A1-GPIO16-Pad21)*%
X132800000Y-115430000D03*
%TO.P,A1,22,GPIO17*%
%TO.N,unconnected-(A1-GPIO17-Pad22)*%
X132800000Y-112890000D03*
D10*
%TO.P,A1,23,GND*%
%TO.N,GND*%
X132800000Y-110350000D03*
D11*
%TO.P,A1,24,GPIO18*%
%TO.N,unconnected-(A1-GPIO18-Pad24)*%
X132800000Y-107810000D03*
%TO.P,A1,25,GPIO19*%
%TO.N,unconnected-(A1-GPIO19-Pad25)*%
X132800000Y-105270000D03*
%TO.P,A1,26,GPIO20*%
%TO.N,Net-(A1-GPIO20)*%
X132800000Y-102730000D03*
%TO.P,A1,27,GPIO21*%
%TO.N,Net-(A1-GPIO21)*%
X132800000Y-100190000D03*
D10*
%TO.P,A1,28,GND*%
%TO.N,GND*%
X132800000Y-97650000D03*
D11*
%TO.P,A1,29,GPIO22*%
%TO.N,unconnected-(A1-GPIO22-Pad29)*%
X132800000Y-95110000D03*
%TO.P,A1,30,RUN*%
%TO.N,unconnected-(A1-RUN-Pad30)*%
X132800000Y-92570000D03*
%TO.P,A1,31,GPIO26_ADC0*%
%TO.N,unconnected-(A1-GPIO26_ADC0-Pad31)*%
X132800000Y-90030000D03*
%TO.P,A1,32,GPIO27_ADC1*%
%TO.N,unconnected-(A1-GPIO27_ADC1-Pad32)*%
X132800000Y-87490000D03*
D10*
%TO.P,A1,33,AGND*%
%TO.N,unconnected-(A1-AGND-Pad33)*%
X132800000Y-84950000D03*
D11*
%TO.P,A1,34,GPIO28_ADC2*%
%TO.N,unconnected-(A1-GPIO28_ADC2-Pad34)*%
X132800000Y-82410000D03*
%TO.P,A1,35,ADC_VREF*%
%TO.N,unconnected-(A1-ADC_VREF-Pad35)*%
X132800000Y-79870000D03*
%TO.P,A1,36,3V3*%
%TO.N,unconnected-(A1-3V3-Pad36)*%
X132800000Y-77330000D03*
%TO.P,A1,37,3V3_EN*%
%TO.N,unconnected-(A1-3V3_EN-Pad37)*%
X132800000Y-74790000D03*
D10*
%TO.P,A1,38,GND*%
%TO.N,GND*%
X132800000Y-72250000D03*
D11*
%TO.P,A1,39,VSYS*%
%TO.N,Net-(A1-VSYS)*%
X132800000Y-69710000D03*
%TO.P,A1,40,VBUS*%
%TO.N,unconnected-(A1-VBUS-Pad40)*%
X132800000Y-67170000D03*
D13*
%TO.P,A1,TP3,USB_DP*%
%TO.N,Net-(A1-USB_DP)*%
X122110000Y-67000000D03*
%TO.P,A1,TP2,USB_DM*%
%TO.N,Net-(A1-USB_DM)*%
X124110000Y-67000000D03*
%TD*%
D14*
%TO.P,U2,1,1*%
%TO.N,Net-(U1-V_{BAT_SENSE})*%
X150517500Y-77967500D03*
%TO.P,U2,2,2*%
%TO.N,GND*%
X150517500Y-75967500D03*
%TD*%
D15*
%TO.P,J1,13*%
%TO.N,N/C*%
X140790000Y-64100000D03*
D16*
X140790000Y-68280000D03*
D15*
X149430000Y-64100000D03*
D16*
X149430000Y-68280000D03*
D17*
%TO.P,J1,12*%
X141885000Y-69195000D03*
%TO.P,J1,11*%
X142660000Y-69195000D03*
D18*
%TO.P,J1,10*%
X143360000Y-69195000D03*
%TO.P,J1,9*%
X143860000Y-69195000D03*
%TO.P,J1,8*%
X144360000Y-69195000D03*
%TO.P,J1,7*%
X144860000Y-69195000D03*
%TO.P,J1,6*%
X145360000Y-69195000D03*
%TO.P,J1,5,Shield*%
%TO.N,GND*%
X145860000Y-69195000D03*
%TO.P,J1,4,GND*%
X146360000Y-69195000D03*
%TO.P,J1,3,D+*%
%TO.N,Net-(A1-USB_DP)*%
X146860000Y-69195000D03*
D17*
%TO.P,J1,2,D-*%
%TO.N,Net-(A1-USB_DM)*%
X147560000Y-69195000D03*
%TO.P,J1,1,VBUS*%
%TO.N,Net-(J1-VBUS)*%
X148335000Y-69195000D03*
%TD*%
D19*
%TO.P,REF\u002A\u002A,1*%
%TO.N,GND*%
X158250000Y-65000000D03*
%TD*%
%TO.P,REF\u002A\u002A,1*%
%TO.N,GND*%
X158250000Y-114750000D03*
%TD*%
%TO.P,REF\u002A\u002A,1*%
%TO.N,GND*%
X105250000Y-114750000D03*
%TD*%
%TO.P,REF\u002A\u002A,1*%
%TO.N,GND*%
X105000000Y-65000000D03*
%TD*%
D20*
%TO.P,U1,21,V_{SS}*%
%TO.N,GND*%
X146625000Y-91375000D03*
D21*
%TO.P,U1,20,OUT*%
%TO.N,Net-(A1-VSYS)*%
X145625000Y-89437500D03*
%TO.P,U1,19,IN*%
%TO.N,Net-(J1-VBUS)*%
X146125000Y-89437500D03*
%TO.P,U1,18,IN*%
X146625000Y-89437500D03*
%TO.P,U1,17,CE*%
%TO.N,GND*%
X147125000Y-89437500D03*
%TO.P,U1,16,V_{BAT_SENSE}*%
%TO.N,Net-(U1-V_{BAT_SENSE})*%
X147625000Y-89437500D03*
D22*
%TO.P,U1,15,V_{BAT}*%
X148562500Y-90375000D03*
%TO.P,U1,14,V_{BAT}*%
X148562500Y-90875000D03*
%TO.P,U1,13,PROG1*%
%TO.N,Net-(U1-PROG1)*%
X148562500Y-91375000D03*
%TO.P,U1,12,PROG3*%
%TO.N,GND*%
X148562500Y-91875000D03*
%TO.P,U1,11,V_{SS}*%
X148562500Y-92375000D03*
D21*
%TO.P,U1,10,V_{SS}*%
X147625000Y-93312500D03*
%TO.P,U1,9,~{TE}*%
X147125000Y-93312500D03*
%TO.P,U1,8,STAT1/~{LBO}*%
%TO.N,Net-(A1-GPIO3)*%
X146625000Y-93312500D03*
%TO.P,U1,7,STAT2*%
%TO.N,unconnected-(U1-STAT2-Pad7)*%
X146125000Y-93312500D03*
%TO.P,U1,6,~{PG}*%
%TO.N,Net-(A1-GPIO2)*%
X145625000Y-93312500D03*
D22*
%TO.P,U1,5,THERM*%
%TO.N,Net-(U1-THERM)*%
X144687500Y-92375000D03*
%TO.P,U1,4,PROG2*%
%TO.N,GND*%
X144687500Y-91875000D03*
%TO.P,U1,3,SEL*%
X144687500Y-91375000D03*
%TO.P,U1,2,VPCC*%
%TO.N,Net-(J1-VBUS)*%
X144687500Y-90875000D03*
%TO.P,U1,1,OUT*%
%TO.N,Net-(A1-VSYS)*%
X144687500Y-90375000D03*
%TD*%
D23*
%TO.P,R1,2*%
%TO.N,Net-(U1-PROG1)*%
X151750000Y-91500000D03*
%TO.P,R1,1*%
%TO.N,GND*%
X151750000Y-92140000D03*
%TD*%
D24*
%TO.P,C1,2*%
%TO.N,GND*%
X147000000Y-84450000D03*
%TO.P,C1,1*%
%TO.N,Net-(U1-V_{BAT_SENSE})*%
X147000000Y-82550000D03*
%TD*%
D14*
%TO.P,BNO085_Halley1,16,5V*%
%TO.N,Net-(A1-VSYS)*%
X140220000Y-115580000D03*
%TO.P,BNO085_Halley1,15,GND*%
%TO.N,GND*%
X140220000Y-113040000D03*
%TO.P,BNO085_Halley1,14,SCL*%
%TO.N,Net-(A1-GPIO21)*%
X140220000Y-110500000D03*
%TO.P,BNO085_Halley1,13,SDA*%
%TO.N,Net-(A1-GPIO20)*%
X140220000Y-107960000D03*
%TO.P,BNO085_Halley1,12*%
%TO.N,N/C*%
X140220000Y-105420000D03*
%TO.P,BNO085_Halley1,11*%
X140220000Y-102880000D03*
%TO.P,BNO085_Halley1,10*%
X140220000Y-100340000D03*
%TO.P,BNO085_Halley1,9*%
X140220000Y-97800000D03*
%TO.P,BNO085_Halley1,8,3V3*%
%TO.N,unconnected-(BNO085_Halley1-3V3-Pad8)*%
X153500000Y-115580000D03*
%TO.P,BNO085_Halley1,7,GND*%
%TO.N,unconnected-(BNO085_Halley1-GND-Pad7)*%
X153500000Y-113040000D03*
%TO.P,BNO085_Halley1,6,SCL*%
%TO.N,unconnected-(BNO085_Halley1-SCL-Pad6)*%
X153500000Y-110500000D03*
%TO.P,BNO085_Halley1,5,SDA*%
%TO.N,unconnected-(BNO085_Halley1-SDA-Pad5)*%
X153500000Y-107960000D03*
%TO.P,BNO085_Halley1,4,ADDR*%
%TO.N,unconnected-(BNO085_Halley1-ADDR-Pad4)*%
X153500000Y-105420000D03*
%TO.P,BNO085_Halley1,3,INT*%
%TO.N,unconnected-(BNO085_Halley1-INT-Pad3)*%
X153500000Y-102880000D03*
%TO.P,BNO085_Halley1,2,BOOT*%
%TO.N,unconnected-(BNO085_Halley1-BOOT-Pad2)*%
X153500000Y-100340000D03*
%TO.P,BNO085_Halley1,1,RST*%
%TO.N,unconnected-(BNO085_Halley1-RST-Pad1)*%
X153500000Y-97800000D03*
%TD*%
D25*
%TO.P,TH1,1*%
%TO.N,GND*%
X140250000Y-91480000D03*
%TO.P,TH1,2*%
%TO.N,Net-(U1-THERM)*%
X140250000Y-92500000D03*
%TD*%
D24*
%TO.P,C2,1*%
%TO.N,GND*%
X143250000Y-82550000D03*
%TO.P,C2,2*%
%TO.N,Net-(J1-VBUS)*%
X143250000Y-84450000D03*
%TD*%
D26*
%TO.N,GND*%
X151750000Y-93250000D03*
X153400000Y-69800000D03*
%TO.N,Net-(A1-GPIO3)*%
X138250000Y-72750000D03*
X146000000Y-94500000D03*
X139010670Y-68246401D03*
X136686089Y-94263908D03*
%TO.N,Net-(A1-GPIO20)*%
X138050000Y-103500000D03*
%TO.N,Net-(A1-VSYS)*%
X141199000Y-88500534D03*
X136950000Y-103500000D03*
X142300000Y-88500000D03*
X137000000Y-99500000D03*
%TO.N,Net-(A1-GPIO2)*%
X139000000Y-73750000D03*
X138300000Y-68486091D03*
X138750000Y-94250000D03*
X137450000Y-94250000D03*
%TO.N,GND*%
X140250000Y-90250000D03*
X136000000Y-73250000D03*
X146500000Y-95250000D03*
X110000000Y-109750000D03*
X136000000Y-98500000D03*
X143250000Y-91825000D03*
X145860000Y-71335000D03*
X110000000Y-84000000D03*
X143250000Y-80500000D03*
X110000000Y-97000000D03*
X149000000Y-76000000D03*
X147250000Y-95250000D03*
X145500000Y-87500000D03*
X110000000Y-71500000D03*
X142500000Y-91500000D03*
X137750000Y-112500000D03*
X136000000Y-111000000D03*
%TO.N,Net-(A1-GPIO21)*%
X137500000Y-101000000D03*
%TO.N,Net-(U1-V_{BAT_SENSE})*%
X147000000Y-79250000D03*
%TD*%
D27*
%TO.N,GND*%
X152850000Y-93250000D02*
X151750000Y-93250000D01*
X158250000Y-98650000D02*
X152850000Y-93250000D01*
X158250000Y-114750000D02*
X158250000Y-98650000D01*
X150375000Y-92375000D02*
X151250000Y-93250000D01*
X151250000Y-93250000D02*
X151750000Y-93250000D01*
X153450000Y-69800000D02*
X153400000Y-69800000D01*
X158250000Y-65000000D02*
X153450000Y-69800000D01*
X105000000Y-79000000D02*
X110000000Y-84000000D01*
X105000000Y-65000000D02*
X105000000Y-79000000D01*
X110000000Y-110000000D02*
X110000000Y-109750000D01*
X105250000Y-114750000D02*
X110000000Y-110000000D01*
%TO.N,Net-(A1-GPIO3)*%
X109330000Y-77330000D02*
X113420000Y-77330000D01*
X108899000Y-64601000D02*
X108899000Y-76899000D01*
X139010670Y-68246401D02*
X139010670Y-65010670D01*
X139010670Y-65010670D02*
X136250000Y-62250000D01*
X138500000Y-86500000D02*
X138500000Y-86250000D01*
X146625000Y-93312500D02*
X146625000Y-93875000D01*
X136686089Y-94263908D02*
X135500000Y-93077819D01*
X136250000Y-62250000D02*
X111250000Y-62250000D01*
X146625000Y-93875000D02*
X146000000Y-94500000D01*
X138250000Y-86000000D02*
X138250000Y-72750000D01*
X108899000Y-76899000D02*
X109330000Y-77330000D01*
X135500000Y-89500000D02*
X138250000Y-86750000D01*
X135500000Y-90000000D02*
X135500000Y-89500000D01*
X138250000Y-86750000D02*
X138500000Y-86500000D01*
X138500000Y-86250000D02*
X138250000Y-86000000D01*
X135500000Y-93077819D02*
X135500000Y-90000000D01*
X111250000Y-62250000D02*
X108899000Y-64601000D01*
%TO.N,Net-(A1-USB_DM)*%
X140000000Y-72500000D02*
X137000000Y-69500000D01*
X147560000Y-71190000D02*
X146250000Y-72500000D01*
X135500000Y-64000000D02*
X125000000Y-64000000D01*
X124110000Y-64890000D02*
X124110000Y-67000000D01*
X137000000Y-65500000D02*
X135500000Y-64000000D01*
X147560000Y-69195000D02*
X147560000Y-71190000D01*
X146250000Y-72500000D02*
X140000000Y-72500000D01*
X125000000Y-64000000D02*
X124110000Y-64890000D01*
X137000000Y-69500000D02*
X137000000Y-65500000D01*
%TO.N,Net-(A1-GPIO20)*%
X137280000Y-102730000D02*
X138050000Y-103500000D01*
X132800000Y-102730000D02*
X137280000Y-102730000D01*
X132295900Y-102540000D02*
X132105900Y-102730000D01*
%TO.N,Net-(A1-VSYS)*%
X132295900Y-69520000D02*
X132105900Y-69710000D01*
X141199000Y-88199000D02*
X141199000Y-88500534D01*
X142500000Y-90000000D02*
X142500000Y-88700000D01*
X137000000Y-99500000D02*
X138000000Y-98500000D01*
X136750000Y-90000000D02*
X138250000Y-88500000D01*
X136210000Y-69710000D02*
X132800000Y-69710000D01*
X145625000Y-89437500D02*
X145625000Y-88875000D01*
X142500000Y-88700000D02*
X142300000Y-88500000D01*
X138000000Y-93500000D02*
X136750000Y-92250000D01*
X145250000Y-88500000D02*
X142300000Y-88500000D01*
X138000000Y-98500000D02*
X138000000Y-93500000D01*
X140220000Y-115580000D02*
X138330000Y-115580000D01*
X136750000Y-92250000D02*
X136750000Y-90000000D01*
X140000000Y-87000000D02*
X140000000Y-73500000D01*
X145625000Y-88875000D02*
X145250000Y-88500000D01*
X138330000Y-115580000D02*
X136950000Y-114200000D01*
X136950000Y-114200000D02*
X136950000Y-103500000D01*
X140000000Y-73500000D02*
X136210000Y-69710000D01*
X141198466Y-88500000D02*
X141199000Y-88500534D01*
X142875000Y-90375000D02*
X142500000Y-90000000D01*
X138250000Y-88500000D02*
X141198466Y-88500000D01*
X144687500Y-90375000D02*
X142875000Y-90375000D01*
X140000000Y-87000000D02*
X141199000Y-88199000D01*
%TO.N,Net-(A1-USB_DP)*%
X137750000Y-65250000D02*
X135750000Y-63250000D01*
X122110000Y-64390000D02*
X122110000Y-67000000D01*
X135750000Y-63250000D02*
X123250000Y-63250000D01*
X140886000Y-71886000D02*
X137750000Y-68750000D01*
X146860000Y-69195000D02*
X146860000Y-71114232D01*
X146860000Y-71114232D02*
X146088232Y-71886000D01*
X146088232Y-71886000D02*
X140886000Y-71886000D01*
X137750000Y-68750000D02*
X137750000Y-65250000D01*
X123250000Y-63250000D02*
X122110000Y-64390000D01*
%TO.N,Net-(A1-GPIO2)*%
X136000000Y-62750000D02*
X138300000Y-65050000D01*
X145250000Y-94250000D02*
X138750000Y-94250000D01*
X139000000Y-87000000D02*
X139000000Y-73750000D01*
X145625000Y-93875000D02*
X145250000Y-94250000D01*
X109250000Y-74500000D02*
X109250000Y-65000000D01*
X138300000Y-65050000D02*
X138300000Y-68486091D01*
X109250000Y-65000000D02*
X111500000Y-62750000D01*
X111500000Y-62750000D02*
X136000000Y-62750000D01*
X137450000Y-94250000D02*
X136000000Y-92800000D01*
X136000000Y-92800000D02*
X136000000Y-90000000D01*
X113420000Y-74790000D02*
X109540000Y-74790000D01*
X145625000Y-93312500D02*
X145625000Y-93875000D01*
X109540000Y-74790000D02*
X109250000Y-74500000D01*
X136000000Y-90000000D02*
X139000000Y-87000000D01*
%TO.N,Net-(J1-VBUS)*%
X146625000Y-88875000D02*
X145899000Y-88149000D01*
X146125000Y-89437500D02*
X146125000Y-88875000D01*
X140551000Y-73949000D02*
X140551000Y-82000000D01*
X148335000Y-71360000D02*
X146445000Y-73250000D01*
X144500000Y-88149000D02*
X142728232Y-88149000D01*
X142071768Y-89051000D02*
X142149000Y-89051000D01*
X148335000Y-69195000D02*
X148335000Y-71360000D01*
X146625000Y-89437500D02*
X146625000Y-88875000D01*
X142729612Y-90726000D02*
X144180912Y-90726000D01*
X146125000Y-88875000D02*
X145399000Y-88149000D01*
X142149000Y-89051000D02*
X142149000Y-90145389D01*
X142528232Y-87949000D02*
X142071768Y-87949000D01*
X144180912Y-90726000D02*
X144205912Y-90751000D01*
X141749000Y-87999000D02*
X141749000Y-88271768D01*
X141250000Y-73250000D02*
X140551000Y-73949000D01*
X142149000Y-90145389D02*
X142729612Y-90726000D01*
X144205912Y-90751000D02*
X144687500Y-90751000D01*
X145399000Y-88149000D02*
X144500000Y-88149000D01*
X144687500Y-90751000D02*
X144687500Y-90875000D01*
X142728232Y-88149000D02*
X142528232Y-87949000D01*
X142071768Y-87949000D02*
X141749000Y-88271768D01*
X141749000Y-88271768D02*
X141749000Y-88728232D01*
X143250000Y-87000000D02*
X143250000Y-84450000D01*
X144399000Y-88149000D02*
X143250000Y-87000000D01*
X140551000Y-82000000D02*
X140551000Y-86801000D01*
X146445000Y-73250000D02*
X141250000Y-73250000D01*
X144500000Y-88149000D02*
X144399000Y-88149000D01*
X140551000Y-86801000D02*
X141749000Y-87999000D01*
X145899000Y-88149000D02*
X145399000Y-88149000D01*
X141749000Y-88728232D02*
X142071768Y-89051000D01*
%TO.N,Net-(U1-PROG1)*%
X151125000Y-91375000D02*
X148562500Y-91375000D01*
X151250000Y-91500000D02*
X151125000Y-91375000D01*
X151750000Y-91500000D02*
X151250000Y-91500000D01*
%TO.N,Net-(U1-THERM)*%
X140375000Y-92375000D02*
X140250000Y-92500000D01*
X144687500Y-92375000D02*
X140375000Y-92375000D01*
%TO.N,Net-(U1-V_{BAT_SENSE})*%
X149300000Y-82550000D02*
X147351000Y-82550000D01*
X147625000Y-88375000D02*
X148500000Y-87500000D01*
X150125000Y-90375000D02*
X150125000Y-87500000D01*
X149300000Y-82550000D02*
X147000000Y-80250000D01*
X150125000Y-90375000D02*
X148562500Y-90375000D01*
X150125000Y-87500000D02*
X150125000Y-83375000D01*
X149625000Y-90875000D02*
X150125000Y-90375000D01*
X148500000Y-87500000D02*
X150125000Y-87500000D01*
X147625000Y-89437500D02*
X147625000Y-88375000D01*
X147000000Y-80250000D02*
X147000000Y-79250000D01*
X148562500Y-90875000D02*
X149625000Y-90875000D01*
X150125000Y-83375000D02*
X149300000Y-82550000D01*
%TO.N,GND*%
X150517500Y-75967500D02*
X149032500Y-75967500D01*
X132800000Y-110350000D02*
X135350000Y-110350000D01*
X142625000Y-91375000D02*
X142500000Y-91500000D01*
X147125000Y-93312500D02*
X147125000Y-94625000D01*
X148562500Y-91875000D02*
X149875000Y-91875000D01*
X135150000Y-97650000D02*
X132800000Y-97650000D01*
X143250000Y-82550000D02*
X143250000Y-80500000D01*
X138290000Y-113040000D02*
X137750000Y-112500000D01*
X135000000Y-72250000D02*
X136000000Y-73250000D01*
X146360000Y-70835000D02*
X145860000Y-71335000D01*
X110650000Y-97650000D02*
X110000000Y-97000000D01*
X135350000Y-110350000D02*
X136000000Y-111000000D01*
X144687500Y-91875000D02*
X143300000Y-91875000D01*
X111050000Y-84950000D02*
X110100000Y-84000000D01*
X110600000Y-110350000D02*
X110000000Y-109750000D01*
X147125000Y-94625000D02*
X146500000Y-95250000D01*
X144687500Y-91375000D02*
X142625000Y-91375000D01*
X110100000Y-84000000D02*
X110000000Y-84000000D01*
X110750000Y-72250000D02*
X113420000Y-72250000D01*
X148562500Y-92375000D02*
X150375000Y-92375000D01*
X149875000Y-91875000D02*
X150375000Y-92375000D01*
X147125000Y-88375000D02*
X146250000Y-87500000D01*
X147125000Y-89437500D02*
X147125000Y-88375000D01*
X147625000Y-94875000D02*
X147250000Y-95250000D01*
X151750000Y-92140000D02*
X151750000Y-93250000D01*
X136000000Y-98500000D02*
X135150000Y-97650000D01*
X113420000Y-97650000D02*
X110650000Y-97650000D01*
X140355000Y-91375000D02*
X140250000Y-91480000D01*
X147625000Y-93312500D02*
X147625000Y-94875000D01*
X110000000Y-71500000D02*
X110750000Y-72250000D01*
X149032500Y-75967500D02*
X149000000Y-76000000D01*
X147125000Y-91875000D02*
X147125000Y-93312500D01*
X113420000Y-84950000D02*
X111050000Y-84950000D01*
X146250000Y-87500000D02*
X145500000Y-87500000D01*
X147000000Y-86750000D02*
X146250000Y-87500000D01*
X146625000Y-91375000D02*
X147125000Y-91875000D01*
X132800000Y-72250000D02*
X135000000Y-72250000D01*
X147000000Y-84450000D02*
X147000000Y-86750000D01*
X140250000Y-91480000D02*
X140250000Y-90250000D01*
X132295900Y-97460000D02*
X132105900Y-97650000D01*
X145860000Y-69195000D02*
X145860000Y-71335000D01*
X143300000Y-91875000D02*
X143250000Y-91825000D01*
X146625000Y-91375000D02*
X144687500Y-91375000D01*
X140220000Y-113040000D02*
X138290000Y-113040000D01*
X146360000Y-69195000D02*
X146360000Y-70835000D01*
X113420000Y-110350000D02*
X110600000Y-110350000D01*
%TO.N,Net-(A1-GPIO21)*%
X132800000Y-100190000D02*
X136690000Y-100190000D01*
X132105900Y-100190000D02*
X132295900Y-100000000D01*
X136690000Y-100190000D02*
X137500000Y-101000000D01*
%TD*%
M02*
