M48
; DRILL file {KiCad 9.0.7} date 2026-02-24T10:12:52+0700
; FORMAT={-:-/ absolute / inch / decimal}
; #@! TF.CreationDate,2026-02-24T10:12:52+07:00
; #@! TF.GenerationSoftware,Kicad,Pcbnew,9.0.7
; #@! TF.FileFunction,Plated,1,2,PTH
FMAT,2
INCH
; #@! TA.AperFunction,Plated,PTH,ViaDrill
T1C0.0118
; #@! TA.AperFunction,Plated,PTH,ComponentDrill
T2C0.0236
; #@! TA.AperFunction,Plated,PTH,ComponentDrill
T3C0.0354
; #@! TA.AperFunction,Plated,PTH,ComponentDrill
T4C0.0394
; #@! TA.AperFunction,Plated,PTH,ComponentDrill
T5C0.0866
%
G90
G05
T1
X4.3307Y-2.815
X4.3307Y-3.3071
X4.3307Y-3.8189
X4.3307Y-4.3209
X5.3543Y-2.8839
X5.3543Y-3.878
X5.3543Y-4.3701
X5.3813Y-3.7112
X5.3917Y-4.0748
X5.3937Y-3.9173
X5.4114Y-3.7106
X5.4134Y-3.9764
X5.4232Y-4.4291
X5.435Y-4.0748
X5.4429Y-2.8642
X5.4449Y-2.6963
X5.4626Y-3.7106
X5.4724Y-2.9035
X5.4729Y-2.6869
X5.5217Y-3.5531
X5.559Y-3.4843
X5.6024Y-3.4843
X5.6102Y-3.6024
X5.6398Y-3.1693
X5.6398Y-3.6152
X5.7283Y-3.4449
X5.7425Y-2.8085
X5.748Y-3.7205
X5.7677Y-3.75
X5.7874Y-3.1201
X5.7972Y-3.75
X5.8661Y-2.9921
X5.9744Y-3.6713
X6.0394Y-2.748
T3
X5.9259Y-2.9908
X5.9259Y-3.0696
T4
X4.8075Y-2.6378
X4.8862Y-2.6378
X5.5205Y-3.8504
X5.5205Y-3.9504
X5.5205Y-4.0504
X5.5205Y-4.1504
X5.5205Y-4.2504
X5.5205Y-4.3504
X5.5205Y-4.4504
X5.5205Y-4.5504
X6.0433Y-3.8504
X6.0433Y-3.9504
X6.0433Y-4.0504
X6.0433Y-4.1504
X6.0433Y-4.2504
X6.0433Y-4.3504
X6.0433Y-4.4504
X6.0433Y-4.5504
T5
X4.1339Y-2.5591
X4.1437Y-4.5177
X6.2303Y-2.5591
X6.2303Y-4.5177
T2
G00X5.5429Y-2.5354
M15
G01X5.5429Y-2.5118
M16
G05
G00X5.5429Y-2.7098
M15
G01X5.5429Y-2.6665
M16
G05
G00X5.8831Y-2.5354
M15
G01X5.8831Y-2.5118
M16
G05
G00X5.8831Y-2.7098
M15
G01X5.8831Y-2.6665
M16
G05
M30
